<svg width="80" height="80" fill="none" xmlns="http://www.w3.org/2000/svg"><path d="M6.667 73.333h66.666" stroke="#50008F" stroke-width="1.5" stroke-miterlimit="10" stroke-linecap="round" stroke-linejoin="round"/><path d="m9.833 73.333.167-40.1c0-2.033.967-3.966 2.567-5.233L35.9 9.833c2.4-1.866 5.767-1.866 8.2 0l23.333 18.134A6.632 6.632 0 0 1 70 33.233v40.1" stroke="#50008F" stroke-width="1.5" stroke-miterlimit="10" stroke-linejoin="round"/><path d="M43.333 56.667h-6.666c-2.767 0-5 2.233-5 5v11.666h16.666V61.667c0-2.767-2.233-5-5-5ZM31.667 45.833H25a3.343 3.343 0 0 1-3.333-3.333v-5c0-1.833 1.5-3.333 3.333-3.333h6.667c1.833 0 3.333 1.5 3.333 3.333v5c0 1.833-1.5 3.333-3.333 3.333ZM55 45.833h-6.667A3.343 3.343 0 0 1 45 42.5v-5c0-1.833 1.5-3.333 3.333-3.333H55c1.833 0 3.333 1.5 3.333 3.333v5c0 1.833-1.5 3.333-3.333 3.333Z" stroke="#50008F" stroke-width="1.5" stroke-miterlimit="10" stroke-linejoin="round"/><path d="m63.333 23.333-.1-10H48.567" stroke="#50008F" stroke-width="1.5" stroke-miterlimit="10" stroke-linecap="round" stroke-linejoin="round"/></svg>