<svg width="20" height="20" fill="none" xmlns="http://www.w3.org/2000/svg"><path d="M8.958 2.042c.584-.492 1.525-.492 2.092 0l1.317 1.125c.25.208.725.383 1.058.383h1.417c.883 0 1.608.725 1.608 1.608v1.417c0 .333.175.8.383 1.05l1.125 1.317c.492.583.492 1.525 0 2.091l-1.125 1.317c-.208.25-.383.717-.383 1.05v1.417c0 .883-.725 1.608-1.608 1.608h-1.417c-.333 0-.8.175-1.05.383l-1.317 1.125c-.583.492-1.525.492-2.091 0L7.65 16.808c-.25-.208-.725-.383-1.05-.383H5.142a1.615 1.615 0 0 1-1.609-1.608v-1.425c0-.325-.166-.8-.375-1.042l-1.125-1.325c-.483-.575-.483-1.508 0-2.083l1.125-1.325c.209-.25.375-.717.375-1.042V5.167c0-.884.725-1.609 1.609-1.609h1.441c.334 0 .8-.175 1.05-.383l1.325-1.133ZM10 6.775V10.8" stroke="#50008F" stroke-width="1.5" stroke-linecap="round" stroke-linejoin="round"/><path d="M9.995 13.333h.008" stroke="#50008F" stroke-width="2" stroke-linecap="round" stroke-linejoin="round"/></svg>