<svg width="53" height="53" fill="none" xmlns="http://www.w3.org/2000/svg"><path d="M37.282 19.792 26.895 9.406 9.24 27.06a2.938 2.938 0 0 0 0 4.154l5.538 5.552a3.234 3.234 0 0 0 4.581 0v0" stroke="#50008F" stroke-width="1.553" stroke-linecap="round" stroke-linejoin="round"/><path d="m10.277 32.254-5.192 5.193L9.239 41.6l5.193-5.193-4.155-4.154ZM1.97 44.717l5.193-5.193M23.78 6.291l3.115 3.114M30.012 12.522l7.27-7.27M41.436 9.406l-7.27 7.27M34.165 2.135l10.387 10.387M50.496 34.085a16.543 16.543 0 0 1-12.94 16.175 16.542 16.542 0 0 1-12.94-16.175v-4.853a3.235 3.235 0 0 1 3.235-3.235h19.41a3.235 3.235 0 0 1 3.235 3.235v4.853ZM37.556 32.467v9.706M32.703 37.32h9.705" stroke="#50008F" stroke-width="1.553" stroke-linecap="round" stroke-linejoin="round"/></svg>