<svg width="73" height="72" fill="none" xmlns="http://www.w3.org/2000/svg"><path d="M36.233 61.143c13.757 0 24.91-11.153 24.91-24.91 0-13.758-11.153-24.91-24.91-24.91-13.758 0-24.91 11.152-24.91 24.91 0 13.757 11.152 24.91 24.91 24.91ZM41.517 2.265H30.949M36.233 2.265v9.058M15.948 8.478l-3.735 3.735-3.734 3.735M12.213 12.213l6.405 6.405M2.265 30.949v10.568M2.265 36.233h9.058M8.479 56.517l3.735 3.735 3.734 3.735M12.213 60.252l6.405-6.404M30.949 70.201h10.568M36.233 70.201v-9.058M56.517 63.987l3.735-3.735 3.735-3.735M60.252 60.252l-6.404-6.404M70.201 41.517V30.949M70.201 36.233h-9.058M63.987 15.948l-3.735-3.735-3.735-3.735M60.252 12.213l-6.404 6.405" stroke="#50008F" stroke-width="1.553" stroke-linecap="round" stroke-linejoin="round"/><path d="M50.575 38.498a1.51 1.51 0 1 0 0-3.02 1.51 1.51 0 0 0 0 3.02ZM38.498 52.085a1.51 1.51 0 1 0 0-3.02 1.51 1.51 0 0 0 0 3.02ZM28.684 33.968a5.284 5.284 0 1 0 0-10.568 5.284 5.284 0 0 0 0 10.568Z" stroke="#50008F" stroke-width="1.553" stroke-linecap="round" stroke-linejoin="round"/></svg>