<svg width="20" height="21" fill="none" xmlns="http://www.w3.org/2000/svg"><path d="m6.962 10.967 2.002 2.01 4.013-4.02" stroke="#50008F" stroke-width="1.495" stroke-linecap="round" stroke-linejoin="round"/><path d="M8.931 3.032c.574-.49 1.512-.49 2.094 0l1.313 1.13c.249.216.714.39 1.046.39h1.413c.88 0 1.603.724 1.603 1.604V7.57c0 .324.175.797.39 1.047l1.13 1.312c.49.573.49 1.512 0 2.094l-1.13 1.313c-.215.249-.39.714-.39 1.046v1.413a1.61 1.61 0 0 1-1.603 1.603h-1.413c-.324 0-.797.175-1.046.39l-1.313 1.13c-.573.49-1.512.49-2.094 0l-1.312-1.13a1.841 1.841 0 0 0-1.047-.39H5.134a1.61 1.61 0 0 1-1.603-1.603v-1.42c0-.325-.175-.79-.382-1.04l-1.122-1.32c-.482-.574-.482-1.504 0-2.077L3.15 8.616c.207-.25.382-.715.382-1.039V6.148c0-.88.723-1.603 1.603-1.603h1.438c.324 0 .797-.175 1.047-.39L8.93 3.031Z" stroke="#50008F" stroke-width="1.495" stroke-linecap="round" stroke-linejoin="round"/></svg>