<svg width="73" height="72" fill="none" xmlns="http://www.w3.org/2000/svg"><path d="M36.233 13.777c-1.96 0-3.867.636-5.435 1.812-2.352 1.763-8.23 6.492-11.172 6.492l-4.529.377v27.175l9.919 5.951a21.806 21.806 0 0 0 11.217 3.107" stroke="#50008F" stroke-width="1.553" stroke-linecap="round" stroke-linejoin="round"/><path d="m15.097 49.633-1.078-.507A20.478 20.478 0 0 1 2.265 30.602a9.001 9.001 0 0 1 12.832-8.143M36.233 13.777c1.96 0 3.867.636 5.435 1.812 2.352 1.763 8.23 6.492 11.172 6.492l4.529.377v27.175l-9.919 5.951a21.805 21.805 0 0 1-11.217 3.107" stroke="#50008F" stroke-width="1.553" stroke-linecap="round" stroke-linejoin="round"/><path d="m57.369 49.633 1.078-.507A20.477 20.477 0 0 0 70.2 30.602a9.001 9.001 0 0 0-12.832-8.143M28.684 36.8h15.097M36.233 44.35V29.251" stroke="#50008F" stroke-width="1.553" stroke-linecap="round" stroke-linejoin="round"/></svg>