<svg width="53" height="53" fill="none" xmlns="http://www.w3.org/2000/svg"><path d="M8.874 28.03a4.206 4.206 0 1 0 0-8.41 4.206 4.206 0 0 0 0 8.41ZM11.677 50.46l1.402-8.41h2.804v-4.206a7.01 7.01 0 0 0-14.019 0v4.206h2.804l1.402 8.41h5.607ZM43.38 28.03a4.206 4.206 0 1 0 0-8.41 4.206 4.206 0 0 0 0 8.41ZM40.577 50.46l-1.402-8.41h-2.803v-4.206a7.01 7.01 0 0 1 14.018 0v4.206h-2.803l-1.402 8.41h-5.608ZM8.874 10.562h10.028M8.874 12.718V8.405M43.381 10.562h-10.03M43.381 12.718V8.405M26.127 1.935a14.709 14.709 0 0 1-6.567 2.102 1.079 1.079 0 0 0-.981 1.079v2.63a12.458 12.458 0 0 0 7.548 11.442A12.456 12.456 0 0 0 33.676 7.74V5.11a1.078 1.078 0 0 0-.982-1.08 14.71 14.71 0 0 1-6.567-2.095v0Z" stroke="#50008F" stroke-width="1.456" stroke-linecap="round" stroke-linejoin="round"/></svg>